<svg width="447" height="64" viewBox="0 0 447 64" fill="none" xmlns="http://www.w3.org/2000/svg">
<g clip-path="url(#clip0_417_51)">
<path fill-rule="evenodd" clip-rule="evenodd" d="M63.877 30H43.9385V26C43.9385 19.3726 38.5659 14 31.9385 14C25.3111 14 19.9385 19.3726 19.9385 26V30H0C1.03239 13.2585 14.9371 0 31.9385 0C48.9399 0 62.8446 13.2585 63.877 30Z" fill="#F76B15"/>
<path fill-rule="evenodd" clip-rule="evenodd" d="M7.29267e-06 30C4.86171e-06 30 2.43082e-06 30.0001 0 30.0001H19.9385V34.0001C19.9385 40.6275 14.5659 46.0001 7.93852 46.0001H3.15545C8.34862 56.6571 19.286 64.0001 31.9385 64.0001C44.591 64.0001 55.5284 56.6571 60.7216 46.0001H55.9385C49.3111 46.0001 43.9385 40.6275 43.9385 34.0001V30.0001H63.877C63.877 30.0001 63.877 30 63.877 30H43.9385V30.0001H19.9385V30H7.29267e-06Z" fill="#F76B15"/>
<path d="M104.018 25.7031C103.893 24.4427 103.356 23.4635 102.408 22.7656C101.46 22.0677 100.174 21.7187 98.5489 21.7187C97.4447 21.7187 96.5124 21.875 95.752 22.1875C94.9916 22.4896 94.4083 22.9115 94.002 23.4531C93.6062 23.9948 93.4083 24.6094 93.4083 25.2969C93.3874 25.8698 93.5072 26.3698 93.7677 26.7969C94.0385 27.224 94.4083 27.5937 94.877 27.9062C95.3458 28.2083 95.8874 28.474 96.502 28.7031C97.1166 28.9219 97.7729 29.1094 98.4708 29.2656L101.346 29.9531C102.742 30.2656 104.023 30.6823 105.19 31.2031C106.356 31.724 107.367 32.3646 108.221 33.125C109.075 33.8854 109.736 34.7812 110.205 35.8125C110.684 36.8437 110.929 38.026 110.94 39.3594C110.929 41.3177 110.429 43.0156 109.44 44.4531C108.46 45.8802 107.044 46.9896 105.19 47.7812C103.346 48.5625 101.122 48.9531 98.5177 48.9531C95.9343 48.9531 93.6843 48.5573 91.7677 47.7656C89.8614 46.974 88.3718 45.8021 87.2989 44.25C86.2364 42.6875 85.6791 40.7552 85.627 38.4531H92.1739C92.2468 39.526 92.5541 40.4219 93.0958 41.1406C93.6479 41.849 94.3822 42.3854 95.2989 42.75C96.226 43.1042 97.2729 43.2812 98.4395 43.2812C99.5854 43.2812 100.58 43.1146 101.424 42.7812C102.278 42.4479 102.94 41.9844 103.408 41.3906C103.877 40.7969 104.111 40.1146 104.111 39.3437C104.111 38.625 103.898 38.0208 103.471 37.5312C103.054 37.0417 102.44 36.625 101.627 36.2812C100.825 35.9375 99.8406 35.625 98.6739 35.3437L95.1895 34.4687C92.4916 33.8125 90.3614 32.7865 88.7989 31.3906C87.2364 29.9948 86.4604 28.1146 86.4708 25.75C86.4604 23.8125 86.976 22.1198 88.0177 20.6719C89.0697 19.224 90.5124 18.0937 92.3458 17.2812C94.1791 16.4687 96.2624 16.0625 98.5958 16.0625C100.971 16.0625 103.044 16.4687 104.815 17.2812C106.596 18.0937 107.981 19.224 108.971 20.6719C109.96 22.1198 110.471 23.7969 110.502 25.7031H104.018ZM128.131 24.5V29.5H113.678V24.5H128.131ZM116.959 18.75H123.615V41.125C123.615 41.7396 123.709 42.2187 123.897 42.5625C124.084 42.8958 124.344 43.1302 124.678 43.2656C125.022 43.401 125.417 43.4687 125.865 43.4687C126.178 43.4687 126.49 43.4427 126.803 43.3906C127.115 43.3281 127.355 43.2812 127.522 43.25L128.568 48.2031C128.235 48.3073 127.766 48.4271 127.162 48.5625C126.558 48.7083 125.824 48.7969 124.959 48.8281C123.355 48.8906 121.949 48.6771 120.74 48.1875C119.542 47.6979 118.61 46.9375 117.943 45.9062C117.277 44.875 116.949 43.5729 116.959 42V18.75ZM139.311 48.9531C137.779 48.9531 136.415 48.6875 135.217 48.1562C134.019 47.6146 133.071 46.8177 132.373 45.7656C131.686 44.7031 131.342 43.3802 131.342 41.7969C131.342 40.4635 131.587 39.3437 132.076 38.4375C132.566 37.5313 133.232 36.8021 134.076 36.25C134.92 35.6979 135.878 35.2812 136.951 35C138.035 34.7187 139.17 34.5208 140.357 34.4062C141.753 34.2604 142.878 34.125 143.732 34C144.587 33.8646 145.206 33.6667 145.592 33.4062C145.977 33.1458 146.17 32.7604 146.17 32.25V32.1562C146.17 31.1667 145.857 30.401 145.232 29.8594C144.618 29.3177 143.743 29.0469 142.607 29.0469C141.41 29.0469 140.456 29.3125 139.748 29.8437C139.04 30.3646 138.571 31.0208 138.342 31.8125L132.186 31.3125C132.498 29.8542 133.113 28.5937 134.029 27.5312C134.946 26.4583 136.128 25.6354 137.576 25.0625C139.035 24.4792 140.722 24.1875 142.639 24.1875C143.972 24.1875 145.248 24.3437 146.467 24.6562C147.696 24.9687 148.785 25.4531 149.732 26.1094C150.691 26.7656 151.446 27.6094 151.998 28.6406C152.55 29.6615 152.826 30.8854 152.826 32.3125V48.5H146.514V45.1719H146.326C145.941 45.9219 145.425 46.5833 144.779 47.1562C144.134 47.7187 143.357 48.1615 142.451 48.4844C141.545 48.7969 140.498 48.9531 139.311 48.9531ZM141.217 44.3594C142.196 44.3594 143.061 44.1667 143.811 43.7812C144.561 43.3854 145.149 42.8542 145.576 42.1875C146.003 41.5208 146.217 40.7656 146.217 39.9219V37.375C146.009 37.5104 145.722 37.6354 145.357 37.75C145.003 37.8542 144.602 37.9531 144.154 38.0469C143.706 38.1302 143.259 38.2083 142.811 38.2812C142.363 38.3437 141.956 38.401 141.592 38.4531C140.811 38.5677 140.128 38.75 139.545 39C138.962 39.25 138.509 39.5885 138.186 40.0156C137.863 40.4323 137.701 40.9531 137.701 41.5781C137.701 42.4844 138.029 43.1771 138.686 43.6562C139.352 44.125 140.196 44.3594 141.217 44.3594ZM157.99 48.5V24.5H164.443V28.6875H164.693C165.131 27.1979 165.865 26.0729 166.897 25.3125C167.928 24.5417 169.115 24.1562 170.459 24.1562C170.792 24.1562 171.152 24.1771 171.537 24.2187C171.923 24.2604 172.261 24.3177 172.553 24.3906V30.2969C172.24 30.2031 171.808 30.1198 171.256 30.0469C170.704 29.974 170.199 29.9375 169.74 29.9375C168.761 29.9375 167.886 30.151 167.115 30.5781C166.355 30.9948 165.751 31.5781 165.303 32.3281C164.865 33.0781 164.647 33.9427 164.647 34.9219V48.5H157.99ZM189.963 24.5V29.5H175.51V24.5H189.963ZM178.791 18.75H185.447V41.125C185.447 41.7396 185.541 42.2187 185.729 42.5625C185.916 42.8958 186.177 43.1302 186.51 43.2656C186.854 43.401 187.249 43.4687 187.697 43.4687C188.01 43.4687 188.322 43.4427 188.635 43.3906C188.947 43.3281 189.187 43.2812 189.354 43.25L190.4 48.2031C190.067 48.3073 189.598 48.4271 188.994 48.5625C188.39 48.7083 187.656 48.7969 186.791 48.8281C185.187 48.8906 183.781 48.6771 182.572 48.1875C181.374 47.6979 180.442 46.9375 179.775 45.9062C179.109 44.875 178.781 43.5729 178.791 42V18.75ZM204.979 48.9688C202.51 48.9688 200.385 48.4688 198.604 47.4688C196.833 46.4583 195.468 45.0312 194.51 43.1875C193.552 41.3333 193.072 39.1406 193.072 36.6094C193.072 34.1406 193.552 31.974 194.51 30.1094C195.468 28.2448 196.817 26.7917 198.557 25.75C200.307 24.7083 202.359 24.1875 204.713 24.1875C206.296 24.1875 207.77 24.4427 209.135 24.9531C210.51 25.4531 211.708 26.2083 212.729 27.2187C213.76 28.2292 214.562 29.5 215.135 31.0312C215.708 32.5521 215.994 34.3333 215.994 36.375V38.2031H195.729V34.0781H209.729C209.729 33.1198 209.52 32.2708 209.104 31.5313C208.687 30.7917 208.109 30.2135 207.369 29.7969C206.64 29.3698 205.791 29.1562 204.822 29.1562C203.812 29.1562 202.916 29.3906 202.135 29.8594C201.364 30.3177 200.76 30.9375 200.322 31.7187C199.885 32.4896 199.661 33.349 199.65 34.2969V38.2187C199.65 39.4062 199.869 40.4323 200.307 41.2969C200.755 42.1615 201.385 42.8281 202.197 43.2969C203.01 43.7656 203.973 44 205.088 44C205.828 44 206.505 43.8958 207.119 43.6875C207.734 43.4792 208.26 43.1667 208.697 42.75C209.135 42.3333 209.468 41.8229 209.697 41.2188L215.854 41.625C215.541 43.1042 214.9 44.3958 213.932 45.5C212.973 46.5937 211.734 47.4479 210.213 48.0625C208.703 48.6667 206.958 48.9688 204.979 48.9688ZM220.338 48.5V24.5H226.791V28.6875H227.041C227.479 27.1979 228.213 26.0729 229.244 25.3125C230.275 24.5417 231.463 24.1562 232.807 24.1562C233.14 24.1562 233.499 24.1771 233.885 24.2187C234.27 24.2604 234.609 24.3177 234.9 24.3906V30.2969C234.588 30.2031 234.156 30.1198 233.604 30.0469C233.052 29.974 232.546 29.9375 232.088 29.9375C231.109 29.9375 230.234 30.151 229.463 30.5781C228.703 30.9948 228.098 31.5781 227.65 32.3281C227.213 33.0781 226.994 33.9427 226.994 34.9219V48.5H220.338ZM247.432 22.0781V16.5H273.713V22.0781H263.916V48.5H257.229V22.0781H247.432ZM285.373 48.9688C282.904 48.9688 280.779 48.4688 278.998 47.4688C277.227 46.4583 275.863 45.0312 274.904 43.1875C273.946 41.3333 273.467 39.1406 273.467 36.6094C273.467 34.1406 273.946 31.974 274.904 30.1094C275.863 28.2448 277.212 26.7917 278.951 25.75C280.701 24.7083 282.753 24.1875 285.107 24.1875C286.691 24.1875 288.165 24.4427 289.529 24.9531C290.904 25.4531 292.102 26.2083 293.123 27.2187C294.154 28.2292 294.956 29.5 295.529 31.0312C296.102 32.5521 296.389 34.3333 296.389 36.375V38.2031H276.123V34.0781H290.123C290.123 33.1198 289.915 32.2708 289.498 31.5313C289.081 30.7917 288.503 30.2135 287.764 29.7969C287.035 29.3698 286.186 29.1562 285.217 29.1562C284.206 29.1562 283.311 29.3906 282.529 29.8594C281.759 30.3177 281.154 30.9375 280.717 31.7187C280.279 32.4896 280.055 33.349 280.045 34.2969V38.2187C280.045 39.4062 280.264 40.4323 280.701 41.2969C281.149 42.1615 281.779 42.8281 282.592 43.2969C283.404 43.7656 284.368 44 285.482 44C286.222 44 286.899 43.8958 287.514 43.6875C288.128 43.4792 288.654 43.1667 289.092 42.75C289.529 42.3333 289.863 41.8229 290.092 41.2188L296.248 41.625C295.936 43.1042 295.295 44.3958 294.326 45.5C293.368 46.5937 292.128 47.4479 290.607 48.0625C289.097 48.6667 287.352 48.9688 285.373 48.9688ZM300.732 48.5V24.5H307.076V28.7344H307.357C307.857 27.3281 308.691 26.2187 309.857 25.4062C311.024 24.5937 312.42 24.1875 314.045 24.1875C315.691 24.1875 317.092 24.599 318.248 25.4219C319.404 26.2344 320.175 27.3385 320.561 28.7344H320.811C321.3 27.3594 322.186 26.2604 323.467 25.4375C324.759 24.6042 326.285 24.1875 328.045 24.1875C330.285 24.1875 332.102 24.901 333.498 26.3281C334.904 27.7448 335.608 29.7552 335.608 32.3594V48.5H328.967V33.6719C328.967 32.3385 328.613 31.3385 327.904 30.6719C327.196 30.0052 326.311 29.6719 325.248 29.6719C324.04 29.6719 323.097 30.0573 322.42 30.8281C321.743 31.5885 321.404 32.5937 321.404 33.8437V48.5H314.951V33.5312C314.951 32.3542 314.613 31.4167 313.936 30.7187C313.269 30.0208 312.389 29.6719 311.295 29.6719C310.555 29.6719 309.889 29.8594 309.295 30.2344C308.712 30.599 308.248 31.1146 307.904 31.7812C307.561 32.4375 307.389 33.2083 307.389 34.0937V48.5H300.732ZM340.865 57.5V24.5H347.428V28.5312H347.725C348.016 27.8854 348.438 27.2292 348.99 26.5625C349.553 25.8854 350.282 25.3229 351.178 24.875C352.084 24.4167 353.209 24.1875 354.553 24.1875C356.303 24.1875 357.917 24.6458 359.397 25.5625C360.876 26.4687 362.058 27.8385 362.943 29.6719C363.829 31.4948 364.272 33.7812 364.272 36.5312C364.272 39.2083 363.839 41.4687 362.975 43.3125C362.121 45.1458 360.954 46.5365 359.475 47.4844C358.006 48.4219 356.36 48.8906 354.537 48.8906C353.246 48.8906 352.147 48.6771 351.24 48.25C350.344 47.8229 349.61 47.2865 349.037 46.6406C348.464 45.9844 348.027 45.3229 347.725 44.6562H347.522V57.5H340.865ZM347.381 36.5C347.381 37.9271 347.579 39.1719 347.975 40.2344C348.371 41.2969 348.943 42.125 349.693 42.7187C350.443 43.3021 351.355 43.5937 352.428 43.5937C353.511 43.5937 354.428 43.2969 355.178 42.7031C355.928 42.099 356.496 41.2656 356.881 40.2031C357.277 39.1302 357.475 37.8958 357.475 36.5C357.475 35.1146 357.282 33.8958 356.897 32.8437C356.511 31.7917 355.943 30.9687 355.193 30.375C354.443 29.7812 353.522 29.4844 352.428 29.4844C351.344 29.4844 350.428 29.7708 349.678 30.3437C348.938 30.9167 348.371 31.7292 347.975 32.7812C347.579 33.8333 347.381 35.0729 347.381 36.5ZM375.365 16.5V48.5H368.709V16.5H375.365ZM387.541 48.9531C386.01 48.9531 384.645 48.6875 383.447 48.1562C382.249 47.6146 381.302 46.8177 380.604 45.7656C379.916 44.7031 379.572 43.3802 379.572 41.7969C379.572 40.4635 379.817 39.3437 380.307 38.4375C380.796 37.5313 381.463 36.8021 382.307 36.25C383.15 35.6979 384.109 35.2812 385.182 35C386.265 34.7187 387.4 34.5208 388.588 34.4062C389.984 34.2604 391.109 34.125 391.963 34C392.817 33.8646 393.437 33.6667 393.822 33.4062C394.208 33.1458 394.4 32.7604 394.4 32.25V32.1562C394.4 31.1667 394.088 30.401 393.463 29.8594C392.848 29.3177 391.973 29.0469 390.838 29.0469C389.64 29.0469 388.687 29.3125 387.979 29.8437C387.27 30.3646 386.802 31.0208 386.572 31.8125L380.416 31.3125C380.729 29.8542 381.343 28.5937 382.26 27.5312C383.177 26.4583 384.359 25.6354 385.807 25.0625C387.265 24.4792 388.953 24.1875 390.869 24.1875C392.203 24.1875 393.479 24.3437 394.697 24.6562C395.927 24.9687 397.015 25.4531 397.963 26.1094C398.921 26.7656 399.677 27.6094 400.229 28.6406C400.781 29.6615 401.057 30.8854 401.057 32.3125V48.5H394.744V45.1719H394.557C394.171 45.9219 393.656 46.5833 393.01 47.1562C392.364 47.7187 391.588 48.1615 390.682 48.4844C389.775 48.7969 388.729 48.9531 387.541 48.9531ZM389.447 44.3594C390.427 44.3594 391.291 44.1667 392.041 43.7812C392.791 43.3854 393.38 42.8542 393.807 42.1875C394.234 41.5208 394.447 40.7656 394.447 39.9219V37.375C394.239 37.5104 393.953 37.6354 393.588 37.75C393.234 37.8542 392.833 37.9531 392.385 38.0469C391.937 38.1302 391.489 38.2083 391.041 38.2812C390.593 38.3437 390.187 38.401 389.822 38.4531C389.041 38.5677 388.359 38.75 387.775 39C387.192 39.25 386.739 39.5885 386.416 40.0156C386.093 40.4323 385.932 40.9531 385.932 41.5781C385.932 42.4844 386.26 43.1771 386.916 43.6562C387.583 44.125 388.427 44.3594 389.447 44.3594ZM418.986 24.5V29.5H404.533V24.5H418.986ZM407.815 18.75H414.471V41.125C414.471 41.7396 414.565 42.2187 414.752 42.5625C414.94 42.8958 415.2 43.1302 415.533 43.2656C415.877 43.401 416.273 43.4687 416.721 43.4687C417.033 43.4687 417.346 43.4427 417.658 43.3906C417.971 43.3281 418.21 43.2812 418.377 43.25L419.424 48.2031C419.091 48.3073 418.622 48.4271 418.018 48.5625C417.413 48.7083 416.679 48.7969 415.815 48.8281C414.21 48.8906 412.804 48.6771 411.596 48.1875C410.398 47.6979 409.466 46.9375 408.799 45.9062C408.132 44.875 407.804 43.5729 407.815 42V18.75ZM434.002 48.9688C431.533 48.9688 429.408 48.4688 427.627 47.4688C425.856 46.4583 424.492 45.0312 423.533 43.1875C422.575 41.3333 422.096 39.1406 422.096 36.6094C422.096 34.1406 422.575 31.974 423.533 30.1094C424.492 28.2448 425.841 26.7917 427.58 25.75C429.33 24.7083 431.382 24.1875 433.736 24.1875C435.32 24.1875 436.794 24.4427 438.158 24.9531C439.533 25.4531 440.731 26.2083 441.752 27.2187C442.783 28.2292 443.585 29.5 444.158 31.0312C444.731 32.5521 445.018 34.3333 445.018 36.375V38.2031H424.752V34.0781H438.752C438.752 33.1198 438.544 32.2708 438.127 31.5313C437.71 30.7917 437.132 30.2135 436.393 29.7969C435.663 29.3698 434.815 29.1562 433.846 29.1562C432.835 29.1562 431.94 29.3906 431.158 29.8594C430.387 30.3177 429.783 30.9375 429.346 31.7187C428.908 32.4896 428.684 33.349 428.674 34.2969V38.2187C428.674 39.4062 428.893 40.4323 429.33 41.2969C429.778 42.1615 430.408 42.8281 431.221 43.2969C432.033 43.7656 432.997 44 434.111 44C434.851 44 435.528 43.8958 436.143 43.6875C436.757 43.4792 437.283 43.1667 437.721 42.75C438.158 42.3333 438.492 41.8229 438.721 41.2188L444.877 41.625C444.565 43.1042 443.924 44.3958 442.955 45.5C441.997 46.5937 440.757 47.4479 439.236 48.0625C437.726 48.6667 435.981 48.9688 434.002 48.9688Z" fill="white"/>
</g>
<defs>
<clipPath id="clip0_417_51">
<rect width="446.877" height="64" fill="white"/>
</clipPath>
</defs>
</svg>
